<?xml version="1.0" encoding="UTF-8" standalone="no"?>
<svg
   xmlns:dc="http://purl.org/dc/elements/1.1/"
   xmlns:cc="http://creativecommons.org/ns#"
   xmlns:rdf="http://www.w3.org/1999/02/22-rdf-syntax-ns#"
   xmlns:svg="http://www.w3.org/2000/svg"
   xmlns="http://www.w3.org/2000/svg"
   xmlns:sodipodi="http://sodipodi.sourceforge.net/DTD/sodipodi-0.dtd"
   xmlns:inkscape="http://www.inkscape.org/namespaces/inkscape"
   height="18"
   version="1.1"
   viewBox="0 0 18 18"
   width="18"
   id="svg2"
   inkscape:version="0.91 r13725"
   sodipodi:docname="active.svg">
  <metadata
     id="metadata16">
    <rdf:RDF>
      <cc:Work
         rdf:about="">
        <dc:format>image/svg+xml</dc:format>
        <dc:type
           rdf:resource="http://purl.org/dc/dcmitype/StillImage" />
        <dc:title />
      </cc:Work>
    </rdf:RDF>
  </metadata>
  <sodipodi:namedview
     pagecolor="#ffffff"
     bordercolor="#666666"
     borderopacity="1"
     objecttolerance="10"
     gridtolerance="10"
     guidetolerance="10"
     inkscape:pageopacity="0"
     inkscape:pageshadow="2"
     inkscape:window-width="2560"
     inkscape:window-height="1416"
     id="namedview14"
     showgrid="false"
     inkscape:zoom="45.254834"
     inkscape:cx="4.3529898"
     inkscape:cy="3.0732772"
     inkscape:window-x="0"
     inkscape:window-y="24"
     inkscape:window-maximized="1"
     inkscape:current-layer="svg2" />
  <desc
     id="desc6" />
  <defs
     id="defs8" />
  <g
     id="g4384"
     transform="translate(0.059322,-0.05932207)">
    <g
       transform="matrix(0.8940678,0,0,0.8940678,0,0.11864407)"
       style="opacity:1;fill:#999999;fill-opacity:1;fill-rule:evenodd;stroke:none;stroke-width:1"
       id="Page-1">
      <g
         style="fill:#999999;fill-opacity:1"
         transform="translate(-380,-44)"
         id="Core">
        <g
           style="fill:#999999;fill-opacity:1"
           transform="translate(380,44)"
           id="cancel">
          <path
             inkscape:connector-curvature="0"
             style="fill:#999999;fill-opacity:1"
             id="Shape"
             d="M 10,0 C 4.5,0 0,4.5 0,10 0,15.5 4.5,20 10,20 15.5,20 20,15.5 20,10 20,4.5 15.5,0 10,0 l 0,0 z M 15,13.6 13.6,15 10,11.4 6.4,15 5,13.6 8.6,10 5,6.4 6.4,5 10,8.6 13.6,5 15,6.4 11.4,10 l 3.6,3.6 0,0 z" />
        </g>
      </g>
    </g>
    <path
       inkscape:connector-curvature="0"
       id="path4374"
       d="M 5.0960029,12.895313 4.4818278,12.280863 6.0918504,10.670736 7.701873,9.0606091 6.0918045,7.450436 4.481736,5.8402632 5.1013872,5.220612 5.7210383,4.6009609 7.3312112,6.2110294 8.9413843,7.8210979 10.551557,6.2110294 12.16173,4.6009609 l 0.619651,0.6196511 0.619652,0.6196512 -1.610069,1.6101728 -1.610068,1.6101731 1.610068,1.6101729 1.610069,1.610173 -0.619652,0.619651 -0.619651,0.619651 -1.610173,-1.610068 -1.6101727,-1.610069 -1.6049248,1.604821 c -0.8827087,0.882651 -1.6097301,1.604821 -1.6156031,1.604821 -0.00587,0 -0.2870571,-0.276502 -0.6248535,-0.614449 z"
       style="opacity:1;fill:#999999;fill-opacity:1;stroke:#999999;stroke-width:0.205;stroke-miterlimit:4;stroke-dasharray:none;stroke-opacity:1" />
  </g>
  <path
     style="opacity:1;fill:#ffffff;fill-opacity:1;stroke:#ffffff;stroke-width:0.12818407;stroke-miterlimit:4;stroke-dasharray:none;stroke-opacity:1"
     d="M 6.5959702,11.3986 6.2119338,11.014391 7.2186618,10.007598 8.2253899,9.0008046 7.2186331,7.9939826 6.2118764,6.9871606 6.5993369,6.5997001 6.9867974,6.2122396 l 1.006822,1.0067567 1.0068222,1.0067568 1.0068224,-1.0067568 1.006822,-1.0067567 0.38746,0.3874605 0.387461,0.3874605 -1.006757,1.006822 -1.0067563,1.006822 1.0067563,1.0068224 1.006757,1.006822 -0.387461,0.38746 -0.38746,0.387461 L 10.007264,10.782613 9.0004416,9.7758561 7.9969011,10.779332 c -0.5519473,0.551911 -1.0065451,1.003475 -1.0102174,1.003475 -0.00367,0 -0.1794934,-0.172893 -0.3907135,-0.384207 z"
     id="path4425"
     inkscape:connector-curvature="0" />
  <g
     style="fill:#ffffff;fill-opacity:1;fill-rule:evenodd;stroke:none;stroke-width:1"
     transform="matrix(0.60905,0,0,0.60905,-228.5295,-23.8887)"
     id="g4419">
    <g
       style="fill:#ffffff;fill-opacity:1"
       transform="translate(380,44)"
       id="g4421">
      <path
         inkscape:connector-curvature="0"
         style="fill:#ffffff;fill-opacity:1"
         id="path4423"
         d="M 10,0 C 4.5,0 0,4.5 0,10 0,15.5 4.5,20 10,20 15.5,20 20,15.5 20,10 20,4.5 15.5,0 10,0 l 0,0 z M 15,13.6 13.6,15 10,11.4 6.4,15 5,13.6 8.6,10 5,6.4 6.4,5 10,8.6 13.6,5 15,6.4 11.4,10 l 3.6,3.6 0,0 z" />
    </g>
  </g>
  <g
     id="g4408"
     transform="matrix(0.55817915,0,0,0.55817915,3.4773376,3.1864222)">
    <g
       id="g4393"
       style="opacity:1;fill:#00cc00;fill-opacity:1;fill-rule:evenodd;stroke:none;stroke-width:1"
       transform="matrix(0.8940678,0,0,0.8940678,0.95338983,1.4745763)">
      <g
         id="g4395"
         transform="translate(-380,-44)"
         style="fill:#00cc00;fill-opacity:1">
        <g
           id="g4397"
           transform="translate(380,44)"
           style="fill:#00cc00;fill-opacity:1">
          <path
             d="M 10,0 C 4.5,0 0,4.5 0,10 0,15.5 4.5,20 10,20 15.5,20 20,15.5 20,10 20,4.5 15.5,0 10,0 l 0,0 z M 15,13.6 13.6,15 10,11.4 6.4,15 5,13.6 8.6,10 5,6.4 6.4,5 10,8.6 13.6,5 15,6.4 11.4,10 l 3.6,3.6 0,0 z"
             id="path4399"
             style="fill:#00cc00;fill-opacity:1"
             inkscape:connector-curvature="0" />
        </g>
      </g>
    </g>
    <path
       style="opacity:1;fill:#00cc00;fill-opacity:1;stroke:#00cc00;stroke-width:0.205;stroke-miterlimit:4;stroke-dasharray:none;stroke-opacity:1"
       d="M 6.0493927,14.251245 5.4352176,13.636795 7.0452402,12.026668 8.6552628,10.416541 7.0451943,8.8063682 5.4351258,7.1961954 6.054777,6.5765442 6.6744281,5.9568931 8.284601,7.5669616 9.8947741,9.1770301 11.504947,7.5669616 13.11512,5.9568931 l 0.619651,0.6196511 0.619652,0.6196512 -1.610069,1.6101728 -1.610068,1.6101728 1.610068,1.610173 1.610069,1.610173 -0.619652,0.619651 -0.619651,0.619651 -1.610173,-1.610068 -1.6101729,-1.610069 -1.6049248,1.604821 c -0.8827087,0.882651 -1.6097301,1.604821 -1.6156031,1.604821 -0.00587,0 -0.2870571,-0.276502 -0.6248535,-0.614449 z"
       id="path4401"
       inkscape:connector-curvature="0" />
  </g>
</svg>
