<?xml version="1.0" encoding="UTF-8" standalone="no"?>
<svg
   xmlns:dc="http://purl.org/dc/elements/1.1/"
   xmlns:cc="http://creativecommons.org/ns#"
   xmlns:rdf="http://www.w3.org/1999/02/22-rdf-syntax-ns#"
   xmlns:svg="http://www.w3.org/2000/svg"
   xmlns="http://www.w3.org/2000/svg"
   xmlns:sodipodi="http://sodipodi.sourceforge.net/DTD/sodipodi-0.dtd"
   xmlns:inkscape="http://www.inkscape.org/namespaces/inkscape"
   enable-background="new 0 0 400 400"
   id="Layer_1"
   version="1.1"
   viewBox="0 0 400 400"
   xml:space="preserve"
   inkscape:version="0.91 r13725"
   sodipodi:docname="icon.svg"
   inkscape:export-filename="/home/manu/Descargas/icon.png"
   inkscape:export-xdpi="5.4000001"
   inkscape:export-ydpi="5.4000001"><metadata
     id="metadata17"><rdf:RDF><cc:Work
         rdf:about=""><dc:format>image/svg+xml</dc:format><dc:type
           rdf:resource="http://purl.org/dc/dcmitype/StillImage" /><dc:title></dc:title></cc:Work></rdf:RDF></metadata><defs
     id="defs15" /><sodipodi:namedview
     pagecolor="#ffffff"
     bordercolor="#666666"
     borderopacity="1"
     objecttolerance="10"
     gridtolerance="10"
     guidetolerance="10"
     inkscape:pageopacity="0"
     inkscape:pageshadow="2"
     inkscape:window-width="2560"
     inkscape:window-height="1416"
     id="namedview13"
     showgrid="false"
     inkscape:zoom="1.4142136"
     inkscape:cx="268.07242"
     inkscape:cy="322.43801"
     inkscape:window-x="0"
     inkscape:window-y="24"
     inkscape:window-maximized="1"
     inkscape:current-layer="g3" /><g
     id="g3"
     transform="matrix(1.1598004,0,0,1.096502,-31.960304,-19.300948)"><path
       d="m 269.768,232.424 c -0.656,-1.862 -1.997,-3.356 -3.776,-4.209 -1.78,-0.852 -3.785,-0.96 -5.646,-0.304 l -10e-4,0 c -1.255,0.442 -2.366,1.214 -3.213,2.233 -0.38,0.458 -0.725,0.994 -1.022,1.592 -0.056,0.134 -0.109,0.325 -0.17,0.515 -0.435,1.352 -1.759,5.464 -6.333,5.99 -1.883,0.217 -5.386,-0.115 -7.723,-4.761 -0.583,-1.158 -0.911,-1.786 -1.426,-2.296 -0.714,-0.708 -1.59,-1.277 -2.532,-1.645 -3.405,-1.325 -8.132,0.345 -9.542,3.375 -0.514,1.103 -0.564,2.206 -0.516,2.936 0.193,3.126 -1.963,5.935 -5.014,6.553 -3.039,0.621 -6.125,-1.126 -7.16,-4.061 l -0.427,-1.211 c -0.396,-1.127 -1.034,-2.109 -1.895,-2.919 -2.024,-1.906 -4.908,-2.515 -7.528,-1.594 -3.842,1.354 -5.866,5.581 -4.513,9.423 l 0.529,1.503 c 0.549,1.498 0.491,3.102 -0.167,4.526 -0.66,1.427 -1.892,2.546 -3.379,3.069 -1.474,0.519 -3.119,0.422 -4.513,-0.269 -1.414,-0.7 -2.474,-1.93 -2.995,-3.469 l -17.55,-49.819 c -0.397,-1.127 -1.035,-2.11 -1.896,-2.92 -2.024,-1.904 -4.909,-2.513 -7.527,-1.593 -1.862,0.656 -3.356,1.997 -4.208,3.776 -0.853,1.78 -0.961,3.785 -0.305,5.646 l 27.876,79.132 c 1.204,3.169 0.254,6.713 -2.386,8.855 -2.669,2.167 -6.39,2.348 -9.257,0.446 l -22.249,-14.792 c -3.102,-2.628 -7.77,-2.242 -10.405,0.866 -1.278,1.506 -1.891,3.417 -1.729,5.382 0.16,1.929 1.048,3.686 2.504,4.96 l 24.262,18.487 c 0.317,0.246 28.035,21.777 29.42,22.832 l 0.302,0.25 c 2.807,2.508 5.858,4.711 9.069,6.549 l 0.23,0.13 c 0.19,0.107 0.377,0.215 0.572,0.315 l 0.096,0.051 c 4.333,2.374 8.972,4.128 13.789,5.215 13.792,3.136 28,0.766 40.013,-6.668 13.848,-8.569 19.889,-21.585 21.411,-25.371 6.554,-16.3 2.87,-31.182 0.981,-36.824 l -14.051,-39.882 z"
       id="path5"
       inkscape:connector-curvature="0"
       style="fill:none" /><path
       d="m 150.606,192.525 c 2.006,-4.188 5.523,-7.345 9.904,-8.888 6.161,-2.17 12.945,-0.735 17.705,3.744 2.007,1.89 3.553,4.268 4.473,6.878 l 12.11,34.376 c 1.955,-2.419 4.582,-4.343 7.724,-5.45 5.372,-1.892 11.215,-1.043 15.779,2.174 l 0,-175.744 c 0,-2.418 -1.967,-4.385 -4.384,-4.385 l -96.087,0 c -2.418,0 -4.385,1.967 -4.385,4.385 l 0,185.277 c 0,2.418 1.967,4.385 4.385,4.385 l 43.845,0 -11.788,-33.462 c -1.543,-4.381 -1.288,-9.101 0.719,-13.29 z m -8.343,17.482 -15.114,0 c -1.381,0 -2.5,-1.119 -2.5,-2.5 l 0,-148.797 c 0,-1.381 1.119,-2.5 2.5,-2.5 l 77.449,0 c 1.381,0 2.5,1.119 2.5,2.5 l 0,148.796 c 0,1.381 -1.119,2.5 -2.5,2.5 l -11.336,0 c -1.381,0 -2.5,-1.119 -2.5,-2.5 0,-1.381 1.119,-2.5 2.5,-2.5 l 8.836,0 0,-143.796 -72.449,0 0,143.796 12.614,0 c 1.381,0 2.5,1.119 2.5,2.5 0,1.381 -1.12,2.501 -2.5,2.501 z"
       id="path7"
       inkscape:connector-curvature="0"
       style="fill:none" /><path
       d="M 153.43399,205.22183 129.649,205.007 l 0,-143.797 72.449,0 0,143.796 -18.99144,-0.21483 c -1.38092,-0.0156 0.34352,1.33383 0.34352,2.71483 0,1.381 -0.70898,2.5 0.67202,2.5 l 20.4759,0 c 1.381,0 2.5,-1.119 2.5,-2.5 l 0,-148.796 c 0,-1.381 -1.119,-2.5 -2.5,-2.5 l -77.449,0 c -1.381,0 -2.5,1.119 -2.5,2.5 l 0,148.796 c 0,1.381 1.11903,2.48995 2.5,2.5 l 29.53473,0.21483 c 1.38097,0.0101 0.67202,-0.0448 0.67202,-1.42583 0,-1.381 -2.54181,-3.5607 -3.92176,-3.57317 z"
       id="path9"
       inkscape:connector-curvature="0"
       style="fill:#333333"
       sodipodi:nodetypes="sccccssssssssssssss" /><path
       d="M 293.277,269.062 279.2,229.102 c -1.543,-4.381 -4.7,-7.899 -8.888,-9.905 -4.188,-2.006 -8.907,-2.261 -13.289,-0.717 -2.96,1.042 -5.583,2.867 -7.585,5.277 -0.354,0.427 -0.691,0.876 -1.009,1.345 -0.28,-0.339 -0.587,-0.679 -0.929,-1.017 -1.68,-1.666 -3.735,-3.002 -5.944,-3.862 -4.322,-1.684 -9.118,-1.469 -13.255,0.207 l 0,-170.815 c 0,-7.932 -6.453,-14.385 -14.384,-14.385 l -96.087,0 c -7.932,0 -14.385,6.453 -14.385,14.385 l 0,185.277 c 0,7.932 6.453,14.385 14.385,14.385 l 47.368,0 10.473,29.729 -16.146,-10.704 c -7.309,-5.97 -18.123,-5 -24.252,2.23 -6.201,7.308 -5.295,18.303 2.02,24.51 l 24.547,18.713 c 1.115,0.866 26.671,20.718 29.3,22.74 3.288,2.92 6.861,5.492 10.661,7.667 l 0.233,0.131 c 0.276,0.156 0.551,0.311 0.833,0.458 5.138,2.81 10.638,4.887 16.34,6.174 4.712,1.071 9.465,1.601 14.187,1.601 11.671,0 23.144,-3.235 33.297,-9.518 14.423,-8.926 21.613,-21.561 24.588,-28.189 -0.487,5.284 -1.847,11.12 -4.76,16.995 -11.615,23.421 -37.811,27.231 -40.759,27.588 -8.247,0.999 -16.901,-0.042 -25.028,-3.008 -1.297,-0.473 -23.246,-25.15739 -23.72,-23.85939 -0.474,1.297 20.708,28.08239 22.005,28.55639 6.672,2.436 13.679,3.68 20.587,3.68 2.268,0 4.526,-0.134 6.757,-0.404 3.223,-0.391 31.857,-4.559 44.638,-30.33 6.471,-13.048 6.017,-25.879 4.689,-33.874 2.36,-14.066 -0.655,-25.857 -2.411,-31.101 z M 117.83,239.276 c -2.418,0 -4.385,-1.967 -4.385,-4.385 l 0,-185.276 c 0,-2.418 1.967,-4.385 4.385,-4.385 l 96.086,0 c 2.417,0 4.384,1.967 4.384,4.385 l 0,175.745 c -4.564,-3.217 -10.408,-4.066 -15.779,-2.174 -3.143,1.107 -5.769,3.031 -7.724,5.45 l -12.11,-34.376 c -0.92,-2.61 -2.466,-4.988 -4.473,-6.878 -4.759,-4.479 -11.544,-5.914 -17.705,-3.744 -4.381,1.543 -7.898,4.7 -9.904,8.888 -2.007,4.189 -2.262,8.908 -0.718,13.289 l 11.788,33.462 -43.845,0 z m 165.008,69.858 c -1.521,3.785 -7.563,16.801 -21.411,25.371 -12.013,7.434 -26.22,9.804 -40.013,6.668 -4.816,-1.087 -9.456,-2.841 -13.789,-5.215 l -0.096,-0.051 c -0.194,-0.101 -0.382,-0.208 -0.572,-0.315 l -0.23,-0.13 c -3.211,-1.837 -6.262,-4.041 -9.069,-6.549 l -0.302,-0.25 c -1.386,-1.055 -29.104,-22.586 -29.42,-22.832 l -24.262,-18.487 c -1.457,-1.274 -2.345,-3.031 -2.504,-4.96 -0.163,-1.965 0.451,-3.876 1.729,-5.382 2.635,-3.107 7.303,-3.494 10.405,-0.866 l 22.249,14.792 c 2.867,1.902 6.588,1.721 9.257,-0.446 2.64,-2.142 3.59,-5.687 2.386,-8.855 L 159.32,202.495 c -0.656,-1.861 -0.547,-3.866 0.305,-5.646 0.853,-1.779 2.347,-3.121 4.208,-3.776 2.618,-0.92 5.502,-0.312 7.527,1.593 0.861,0.811 1.499,1.793 1.896,2.92 l 17.55,49.819 c 0.521,1.539 1.581,2.769 2.995,3.469 1.394,0.69 3.04,0.788 4.513,0.269 1.487,-0.523 2.719,-1.642 3.379,-3.069 0.658,-1.424 0.717,-3.028 0.167,-4.526 l -0.529,-1.503 c -1.353,-3.842 0.671,-8.069 4.513,-9.423 2.62,-0.921 5.504,-0.312 7.528,1.594 0.86,0.81 1.498,1.792 1.895,2.919 l 0.427,1.211 c 1.035,2.935 4.121,4.682 7.16,4.061 3.051,-0.618 5.207,-3.426 5.014,-6.553 -0.048,-0.73 0.002,-1.833 0.516,-2.936 1.41,-3.03 6.137,-4.7 9.542,-3.375 0.942,0.367 1.818,0.936 2.532,1.645 0.515,0.511 0.843,1.139 1.426,2.296 2.337,4.646 5.839,4.979 7.723,4.761 4.574,-0.526 5.898,-4.638 6.333,-5.99 0.062,-0.19 0.114,-0.381 0.17,-0.515 0.297,-0.598 0.642,-1.133 1.022,-1.592 0.847,-1.019 1.958,-1.792 3.213,-2.233 l 10e-4,0 c 1.861,-0.656 3.866,-0.548 5.646,0.304 1.779,0.853 3.12,2.347 3.776,4.209 l 14.051,39.886 c 1.889,5.638 5.573,20.519 -0.981,36.82 z"
       id="path11"
       inkscape:connector-curvature="0"
       style="fill:#333333"
       sodipodi:nodetypes="ccsccccccsssssscccccccccccscccccccscscccsssssccccccccccccccccccccccccccccccccccccccccccccccccccccccccccc" /><path
       style="opacity:1;fill:#6699ff;fill-opacity:1;stroke:#6699ff;stroke-width:0.23556575;stroke-opacity:1"
       d="m 124.8175,205.42995 -6.41917,-0.0666 0,-78.67518 0,-78.675171 41.93071,0 41.9307,0 0,78.678961 0,78.67896 -5.35912,-0.0312 c -2.94752,-0.0171 -6.99817,-0.0967 -9.00146,-0.17667 l -3.64234,-0.1455 -2.40316,-6.43015 c -1.32174,-3.53658 -2.828,-7.14074 -3.34724,-8.00924 -2.57615,-4.30886 -7.07098,-7.64169 -12.18317,-9.03355 -2.77236,-0.75482 -7.92261,-0.75868 -10.68979,-0.008 -6.15321,1.6692 -10.82644,5.50383 -13.30298,10.91581 -1.21058,2.6455 -1.6363,4.63597 -1.62935,7.61826 0.005,2.25558 0.1305,3.17924 0.69476,5.12356 0.11168,0.38484 -0.22201,0.40859 -5.01979,0.35729 -2.82669,-0.0302 -8.02806,-0.0849 -11.5586,-0.12157 z"
       id="path4159"
       inkscape:connector-curvature="0"
       transform="matrix(0.86221733,0,0,0.91199104,27.556728,17.602292)" /></g></svg>